<svg preserveAspectRatio="none" width="100%" height="100%" overflow="visible" style="display: block;" viewBox="0 0 32 32" fill="none" xmlns="http://www.w3.org/2000/svg">
<g id="Shop Streamline Freehand" clip-path="url(#clip0_0_4)">
<path id="Vector" fill-rule="evenodd" clip-rule="evenodd" d="M31.9307 9.95459C31.6693 7.81616 30.9024 5.77076 29.6931 3.98785C29.1175 3.32003 28.4748 2.71307 27.7752 2.17653C26.6032 1.32414 9.07592 1.39073 4.82728 2.05665C4.71712 2.08307 4.62087 2.1498 4.55749 2.24369C4.49412 2.33759 4.46825 2.45183 4.48497 2.56387C4.50169 2.67591 4.5598 2.7776 4.64783 2.84891C4.73585 2.9202 4.8474 2.95592 4.96047 2.949C5.97268 2.81581 7.46436 2.72259 9.18247 2.66932C8.48775 4.66712 8.04047 6.74253 7.8506 8.84915L5.83949 9.31529C4.30785 9.44848 2.88277 9.07556 1.29786 9.40852C1.87047 7.40993 2.61003 5.46301 3.50875 3.58829C3.53088 3.49309 3.51735 3.39308 3.47072 3.30717C3.42409 3.22128 3.34759 3.15544 3.25569 3.12215C2.92272 3.00228 2.68299 3.24201 2.21684 4.33413C1.13803 6.82472 -0.153869 9.31529 0.0991839 11.8858C0.472104 15.7748 5.2002 16.6272 7.53096 13.3908L7.8506 12.9113C7.86735 13.3844 7.97909 13.8492 8.17916 14.2783C8.37924 14.7072 8.66356 15.0916 9.01523 15.4084C9.36688 15.7253 9.77868 15.9683 10.2261 16.1227C10.6736 16.2771 11.1475 16.34 11.6198 16.3076C12.5529 16.2715 13.4589 15.9837 14.2419 15.4751C15.0249 14.9663 15.656 14.2553 16.0681 13.4175C17.6131 17.0135 22.4344 18.1321 23.9395 13.4175C24.5423 14.2247 25.4 14.8049 26.3736 15.0641C27.3472 15.3233 28.3799 15.2464 29.3043 14.8459C30.2288 14.4452 30.9909 13.7444 31.4676 12.8567C31.9443 11.969 32.1073 10.9465 31.9307 9.95459ZM22.1281 2.81581C22.1533 4.85747 22.3135 6.89523 22.6076 8.91573C21.5288 8.91573 17.6531 8.82251 16.8007 8.78255C16.9539 6.73879 16.9539 4.68644 16.8007 2.64268C18.692 2.656 20.5299 2.73591 22.1281 2.81581ZM10.1414 2.656H15.9483C15.5964 4.66175 15.4092 6.69297 15.3889 8.72927C11.9527 8.50285 10.9006 8.2498 9.3556 8.55613C9.58201 7.35745 10.1414 2.656 10.1414 2.656ZM7.47768 11.2598C6.65193 12.5117 6.14583 13.6172 4.81396 14.11C4.41645 14.2864 3.98177 14.3629 3.54791 14.3327C3.11404 14.3024 2.69417 14.1664 2.32499 13.9365C1.9558 13.7065 1.64853 13.3897 1.43001 13.0137C1.21151 12.6377 1.08839 12.2138 1.07144 11.7792C1.00526 11.2619 1.00526 10.7383 1.07144 10.221C1.10666 10.2275 1.14277 10.2275 1.17799 10.221C2.60308 9.96791 4.36113 10.474 5.91941 10.3808L7.73073 10.1544C7.75101 10.5291 7.68257 10.9032 7.53096 11.2465L7.47768 11.2598ZM14.6164 13.0445C13.4844 15.0289 10.6209 15.6149 9.59533 13.9768C9.01545 12.7302 8.82515 11.3377 9.04928 9.98123C11.4466 9.67489 11.8595 10.0611 15.4156 10.181C15.4821 11.3131 15.6287 10.767 14.6164 13.0445ZM20.7696 14.9891C20.0969 15.0105 19.4327 14.8355 18.8579 14.4855C18.2831 14.1353 17.8228 13.6253 17.5332 13.0179C17.2269 12.4718 17.1071 11.6061 16.5609 11.0867C16.4411 11.0201 16.4411 11.1799 16.5609 10.2476C18.5987 10.2476 20.1304 10.2476 22.794 10.1011C23.1004 11.6993 22.248 14.7625 20.7563 14.9891H20.7696ZM30.1859 11.979C29.9801 12.3905 29.6828 12.7494 29.3168 13.0281C28.9507 13.3068 28.5256 13.4979 28.0741 13.5865C27.6227 13.6753 27.1569 13.6593 26.7127 13.54C26.2683 13.4207 25.8572 13.201 25.5111 12.898C24.6613 12.1747 24.1303 11.1461 24.0327 10.0345L27.1759 9.90131C27.296 9.90131 27.4112 9.8536 27.4961 9.76868C27.5809 9.68376 27.6287 9.56857 27.6287 9.44848C27.6287 9.32837 27.5809 9.2132 27.4961 9.12828C27.4112 9.04336 27.296 8.99564 27.1759 8.99564H24.006C23.8869 6.94729 23.5793 4.91427 23.0871 2.92237C24.4189 3.00228 25.4444 3.08219 26.1903 3.17543C26.5765 3.17543 26.9495 3.46843 27.0293 3.34856C28.2859 4.22449 29.2213 5.48737 29.6931 6.94459C30.2525 8.58277 30.8784 10.3541 30.1859 11.979Z" fill="var(--fill-0, #F4F7F4)"/>
<path id="Vector_2" fill-rule="evenodd" clip-rule="evenodd" d="M4.02816 19.2376C3.95649 19.1923 3.87456 19.1656 3.78989 19.1601C3.70523 19.1545 3.62055 19.1705 3.54363 19.2063C3.46671 19.2421 3.40003 19.2967 3.34971 19.3649C3.29939 19.4333 3.26707 19.5132 3.25568 19.5972C3.25568 19.7039 2.88276 23.2732 2.93604 24.2455C2.93604 24.8048 2.93604 25.3775 3.42883 25.6705C5.66635 26.8825 8.35671 26.0967 10.5676 26.3497C11.5931 26.4431 13.0582 26.736 13.6708 25.8304C14.0971 25.2044 13.7507 24.1389 13.7375 23.5928C13.7375 21.4485 14.0971 18.0923 12.4056 17.8925C12.4056 17.8925 8.40997 17.9724 7.18467 17.7992C6.21143 17.7865 5.2392 17.8668 4.28121 18.0389C4.19115 18.0717 4.11531 18.1349 4.06671 18.2176C4.01811 18.3001 3.99977 18.3972 4.01484 18.4919C4.12139 19.3575 5.61307 18.4919 7.02484 18.8248C7.38444 18.8248 7.74405 18.9313 8.10365 18.9713C8.01041 19.5972 7.89055 20.6628 7.86392 21.4352C6.55567 21.4261 5.24937 21.5376 3.96157 21.7681V21.342C4.06812 19.1044 4.10807 19.3575 4.02816 19.2376ZM12.4721 25.0312C12.4056 25.2177 10.9671 24.8581 10.7141 24.8315H9.10255C9.20455 24.1967 9.26681 23.5561 9.289 22.9136C12.0459 22.7271 12.0326 22.8337 12.2324 22.7937C12.1521 23.5481 12.2338 24.3109 12.4721 25.0312ZM12.1925 19.2376C12.3212 20.0971 12.3569 20.9677 12.299 21.8348C11.3114 21.6111 10.3017 21.4993 9.289 21.5019C9.20933 20.6736 9.08036 19.8508 8.90276 19.0379C11.8462 19.2376 11.9527 19.4773 12.1925 19.2376ZM7.95715 22.9536C7.95715 23.2599 8.03705 23.5795 8.06369 23.8859C8.22352 24.898 8.22352 24.8181 8.19688 24.938C6.78296 25.1831 5.33097 25.0872 3.96157 24.6583V22.5807C4.08144 22.6339 7.25125 22.9269 7.95715 22.9536Z" fill="var(--fill-0, #F4F7F4)"/>
<path id="Vector_3" fill-rule="evenodd" clip-rule="evenodd" d="M19.5443 24.4452C18.3856 23.8992 18.2124 27.2421 19.2113 27.2421C19.3315 27.2421 19.4467 27.1944 19.5315 27.1095C19.6164 27.0245 19.6641 26.9093 19.6641 26.7893C20.1436 25.2976 19.6508 24.4985 19.5443 24.4452Z" fill="var(--fill-0, #F4F7F4)"/>
<path id="Vector_4" fill-rule="evenodd" clip-rule="evenodd" d="M17.3733 27.7616C17.4932 26.4297 17.6264 24.7648 17.8528 23.4331C17.9696 22.6131 18.382 21.8641 19.0124 21.3269C19.6427 20.7897 20.4476 20.5015 21.2757 20.5163C24.3389 20.4231 24.4323 23.8592 24.8184 26.6295C24.9916 28.0279 26.2701 28.3476 26.1503 26.6295C26.0304 24.9113 25.7375 23.8459 25.6708 23.5928C25.4236 22.2735 24.8255 21.0451 23.9395 20.0368C23.0995 19.3473 22.0391 18.984 20.9529 19.0133C19.8667 19.0427 18.8275 19.4628 18.026 20.1965C16.4944 21.5284 16.3212 23.0867 16.1215 25.0047C16.0149 26.0035 16.2147 26.0967 16.1215 26.8559C15.9483 28.2544 17.0271 28.8936 17.3733 27.7616Z" fill="var(--fill-0, #F4F7F4)"/>
<path id="Vector_5" fill-rule="evenodd" clip-rule="evenodd" d="M31.3845 21.7283C31.278 19.2909 30.8917 17.8392 30.8651 15.3752C30.8651 15.2552 30.8173 15.14 30.7324 15.0551C30.6476 14.9701 30.5324 14.9224 30.4123 14.9224C30.2921 14.9224 30.1769 14.9701 30.092 15.0551C30.0072 15.14 29.9595 15.2552 29.9595 15.3752C29.9595 17.8792 30.9051 24.978 30.0393 27.7616C30.0393 27.948 29.6132 28.494 29.7729 28.6405C29.6397 28.6405 10.3012 29.0135 7.69075 29.0268C6.35889 29.0268 2.48317 29.0268 1.32446 28.8669C0.964857 22.9535 0.911584 26.7093 0.964857 14.8559C0.964857 14.7499 0.922761 14.6483 0.847831 14.5733C0.772899 14.4984 0.671269 14.4563 0.5653 14.4563C0.459331 14.4563 0.357701 14.4984 0.282771 14.5733C0.207839 14.6483 0.165743 14.7499 0.165743 14.8559C0.165743 17.3331 -0.207179 24.5917 0.165743 26.8425C0.165743 27.3487 0.0858309 29.2133 0.458752 29.7327C1.55088 31.2377 29.44 29.9192 29.6397 29.9059C31.1315 29.7727 30.9716 28.9203 31.2247 28.1344C31.4644 27.0424 31.5576 25.8304 31.3845 21.7283Z" fill="var(--fill-0, #F4F7F4)"/>
</g>
<defs>
<clipPath id="clip0_0_4">
<rect width="32" height="32" fill="white"/>
</clipPath>
</defs>
</svg>
