<svg preserveAspectRatio="none" width="100%" height="100%" overflow="visible" style="display: block;" viewBox="0 0 32 32" fill="none" xmlns="http://www.w3.org/2000/svg">
<g id="Messages-Bubble-Square-Text Streamline Freehand" clip-path="url(#clip0_0_4)">
<path id="Vector" d="M31.7657 3.73153C31.7528 3.07476 31.6904 2.41989 31.5792 1.77248C31.5331 1.53515 31.4169 1.31703 31.246 1.14611C31.0673 1.02716 30.8687 0.941383 30.6596 0.892904C29.7259 0.719221 28.7823 0.6035 27.8343 0.546404C24.156 0.239884 18.1189 0 15.6935 0C14.9739 0 9.50979 0 5.47172 0.133269C4.28011 0.174171 3.09195 0.285421 1.91344 0.466443C1.50351 0.517851 1.11115 0.663847 0.767325 0.892904C0.623528 1.03272 0.517993 1.20709 0.460805 1.39932C0.298687 2.14441 0.205009 2.90276 0.18094 3.66491C0.00769041 6.75675 0.00769043 11.9942 0.00769043 13.1537C0.00769043 14.3131 0.18094 19.3107 0.354191 22.3359C0.354191 23.3088 0.460805 24.0684 0.514113 24.4283C0.525824 24.6116 0.590653 24.7876 0.700691 24.9347C1.08105 25.2447 1.54487 25.4348 2.03339 25.4811C2.98607 25.5771 3.94599 25.5771 4.89867 25.4811C5.92484 25.3877 6.80441 25.3079 7.56405 25.3079C9.6164 25.3079 9.44315 25.8009 9.50979 26.0541C9.66171 26.7883 9.66171 27.5456 9.50979 28.2797C9.31784 29.3531 8.85961 30.3612 8.17709 31.2116C8.12384 31.2911 8.09417 31.384 8.09155 31.4796C8.08892 31.5753 8.11341 31.6697 8.16223 31.752C8.21103 31.8343 8.28213 31.9009 8.36732 31.9445C8.45249 31.988 8.54827 32.0065 8.64353 31.9979C9.16488 31.992 9.68375 31.9249 10.1895 31.798C11.5207 31.552 12.7599 30.9485 13.7744 30.0521C14.2705 29.4975 14.7165 28.8999 15.1071 28.2664C15.7735 27.2136 16.1732 26.2407 16.5464 25.7076C16.6664 25.7076 16.9861 25.6144 17.306 25.6144C19.5049 25.6144 24.6625 25.8409 26.5016 25.9875C27.4733 26.0536 28.4484 26.0536 29.4201 25.9875C29.9832 25.9789 30.5291 25.7924 30.9795 25.4544C31.4059 24.522 31.6241 23.5079 31.6192 22.4825C31.9923 19.0175 31.9923 13.1403 31.9923 11.9942C31.9923 10.8481 31.9123 6.34361 31.7657 3.73153ZM30.4331 21.1365C30.4192 22.1529 30.3436 23.1677 30.2065 24.1751C30.2065 24.3349 30.1132 24.5215 30.0999 24.5881C29.9941 24.6336 29.8815 24.6605 29.7667 24.6681C29.4003 24.7219 29.0308 24.7531 28.6605 24.7615H26.7148C25.1023 24.6681 20.9709 24.5215 18.4521 24.5348C17.8069 24.5211 17.1616 24.5477 16.5197 24.6148C16.3191 24.6284 16.1299 24.7135 15.9867 24.8547C15.5603 25.3477 15.1337 26.5072 14.3608 27.76C14.0019 28.3207 13.5867 28.8431 13.1214 29.3192C12.1003 30.2201 10.8334 30.7955 9.48313 30.9717C10.0539 29.9603 10.3994 28.8373 10.496 27.68C10.8025 24.1351 8.71017 24.3483 7.65735 24.3349C6.88437 24.3349 5.96483 24.3349 4.89867 24.4816C4.14456 24.5388 3.3872 24.5388 2.63309 24.4816C2.22679 24.4943 1.82509 24.3927 1.47365 24.1884L1.20711 13.1537C1.20711 12.2075 1.20711 8.94236 1.35371 6.0904C1.35371 4.61112 1.50031 3.23844 1.62025 2.38552C1.64472 2.1926 1.68032 2.00127 1.72687 1.81247C1.90011 1.81247 2.17997 1.81247 2.40653 1.74583C3.92464 1.57989 5.45053 1.49537 6.97767 1.49261C10.7359 1.41265 15.0537 1.49261 15.6801 1.49261C17.4927 1.49261 21.3575 1.65253 24.7157 1.85244C26.6349 1.97239 28.3807 2.10565 29.4868 2.23892L30.1132 2.34553C30.122 2.50089 30.122 2.65663 30.1132 2.81197C30.3264 5.07756 30.4197 10.5016 30.4064 11.9809C30.4731 12.9937 30.5663 17.6581 30.4464 21.1365H30.4331Z" fill="var(--fill-0, #F4F7F4)"/>
<path id="Vector_2" d="M25.6887 7.7296C24.7557 7.64964 22.1437 7.46307 19.0919 7.34312H13.4412C10.6692 7.43641 8.19043 7.63631 6.77777 7.76959C6.67175 7.76959 6.57005 7.81171 6.49507 7.88668C6.42009 7.96165 6.37797 8.06335 6.37797 8.16939C6.37797 8.27543 6.42009 8.37712 6.49507 8.45209C6.57005 8.52707 6.67175 8.5692 6.77777 8.5692C8.11047 8.5692 10.6159 8.72912 13.3613 8.80908H18.9985C22.0237 8.80908 24.6359 8.64916 25.5687 8.67581C25.6903 8.67948 25.8084 8.63556 25.898 8.55343C25.9876 8.47128 26.0416 8.35739 26.0485 8.23603C26.0612 8.12215 26.0315 8.00759 25.9652 7.91419C25.8988 7.82079 25.8004 7.75508 25.6887 7.7296Z" fill="var(--fill-0, #F4F7F4)"/>
<path id="Vector_3" d="M25.3288 12.6739H16.1599C15.2404 12.6739 14.3075 12.6739 13.4145 12.7805C10.2961 12.9538 7.71064 13.1803 7.04429 13.1936C6.93827 13.1936 6.83657 13.2358 6.76159 13.3107C6.68661 13.3857 6.64449 13.4875 6.64449 13.5935C6.64449 13.6995 6.68661 13.8012 6.76159 13.8761C6.83657 13.9511 6.93827 13.9932 7.04429 13.9932C7.72397 13.9932 10.3361 14.2065 13.4945 14.2332H16.2399C17.1728 14.2332 18.0923 14.1665 18.9985 14.1132C21.5307 13.9665 23.8895 13.7533 25.4088 13.6201C25.5289 13.6201 25.6443 13.5724 25.7292 13.4873C25.8141 13.4024 25.8619 13.2872 25.8619 13.167C25.8619 13.0468 25.8141 12.9316 25.7292 12.8466C25.6443 12.7616 25.5289 12.7139 25.4088 12.7139L25.3288 12.6739Z" fill="var(--fill-0, #F4F7F4)"/>
<path id="Vector_4" d="M16.3999 17.7781C15.8401 17.7781 14.534 17.6448 13.0281 17.6315H11.6021C11.1224 17.6315 10.6293 17.6315 10.1762 17.7381C8.76351 17.898 7.51077 18.1247 6.87108 18.1779C6.76504 18.1779 6.66335 18.22 6.58837 18.2951C6.5134 18.37 6.47127 18.4717 6.47127 18.5777C6.47127 18.6837 6.5134 18.7855 6.58837 18.8604C6.66335 18.9355 6.76504 18.9775 6.87108 18.9775C8.15396 19.1268 9.44435 19.2025 10.7359 19.2041C11.4955 19.2041 12.2818 19.2041 13.0148 19.0575C14.534 18.9109 15.8401 18.6976 16.4132 18.6577C16.5333 18.6577 16.6485 18.61 16.7336 18.5249C16.8185 18.44 16.8663 18.3248 16.8663 18.2045C16.8645 18.1456 16.8511 18.0876 16.8265 18.034C16.802 17.9804 16.7669 17.9323 16.7235 17.8925C16.6799 17.8527 16.6288 17.8221 16.5732 17.8024C16.5176 17.7828 16.4587 17.7745 16.3999 17.7781Z" fill="var(--fill-0, #F4F7F4)"/>
</g>
<defs>
<clipPath id="clip0_0_4">
<rect width="32" height="32" fill="white"/>
</clipPath>
</defs>
</svg>
